# Alias OBJ Model File
# Exported from SketchUp, (c) 2000-2012 Trimble Navigation Limited
# File units = meters

mtllib cube2.mtl

g Mesh1 Model

usemtl Companion_cube
v -0.489842 0.509288 -0.517862
vt -46 28
vn -1 0 -0
v -0.489842 -0.486624 0.482138
vt -45 27
v -0.489842 0.509288 0.482138
vt -45 28
f 1/1/1 2/2/1 3/3/1

v -0.489842 -0.486624 -0.517862
vt -46 27
f 2/2/1 1/1/1 4/4/1

vt -8 26
vn 0 0 -1
v 0.510961 -0.486624 -0.517862
vt -9 25
vt -8 25
f 1/5/2 5/6/2 4/7/2

v 0.510961 0.509288 -0.517862
vt -9 26
f 5/6/2 1/5/2 6/8/2

vn 0 1 -0
v 0.510961 0.509288 0.482138
vt -9 27
f 1/5/3 7/9/3 6/8/3

vt -8 27
f 7/9/3 1/5/3 3/10/3

vn 0 0 1
vt -7 26
f 2/7/4 7/11/4 3/5/4

v 0.510961 -0.486624 0.482138
vt -7 25
f 7/11/4 2/7/4 8/12/4

vt -8 24
vn 0 -1 -0
vt -9 24
f 2/13/5 5/6/5 8/14/5

f 5/6/5 2/13/5 4/7/5

vn 1 0 -0
vt -10 26
vt -10 25
f 5/6/6 7/15/6 8/16/6

f 7/15/6 5/6/6 6/8/6

